<?xml version="1.0" encoding="UTF-8"?>
<svg width="60px" height="60px" viewBox="0 0 60 60" version="1.1" xmlns="http://www.w3.org/2000/svg" xmlns:xlink="http://www.w3.org/1999/xlink">
    <!-- Generator: Sketch 51.1 (57501) - http://www.bohemiancoding.com/sketch -->
    <title>icon/wrong</title>
    <desc>Created with Sketch.</desc>
    <defs></defs>
    <g id="icon/wrong" stroke="none" stroke-width="1" fill="none" fill-rule="evenodd">
        <g fill="#ED0600" id="Shape">
            <path d="M30,0 C46.5680769,0 60,13.4319231 60,30 C60,46.5680769 46.5680769,60 30,60 C13.4319231,60 0,46.5680769 0,30 C0,13.4319231 13.4319231,0 30,0 Z M33.0468708,30.0142379 L41.3922723,21.6715381 C42.221023,20.8430557 42.2231672,19.4840445 41.3858396,18.6469879 C40.5431513,17.8045724 39.1933491,17.806716 38.3592378,18.6405572 L30.0138363,26.983257 L21.6684349,18.6405572 C20.8343236,17.806716 19.4855935,17.8035007 18.6418331,18.6469879 C17.8045055,19.4840445 17.8066497,20.8430557 18.6354004,21.6715381 L26.9808018,30.0142379 L18.6354004,38.3569377 C17.8066497,39.1854201 17.8045055,40.5444313 18.6418331,41.3825597 C19.4845214,42.2249752 20.8343236,42.2228316 21.6684349,41.3889904 L30.0138363,33.0462906 L38.3592378,41.3889904 C39.1933491,42.2228316 40.5420792,42.2260469 41.3858396,41.3825597 C42.2231672,40.5455031 42.221023,39.1864919 41.3922723,38.3569377 L33.0468708,30.0142379 Z"></path>
        </g>
    </g>
</svg>